<?xml version="1.0" encoding="UTF-8" standalone="no"?>
<svg width="48px" height="41px" viewBox="0 0 48 41" version="1.1" xmlns="http://www.w3.org/2000/svg" xmlns:xlink="http://www.w3.org/1999/xlink">
    <!-- Generator: sketchtool 39 (31667) - http://www.bohemiancoding.com/sketch -->
    <title>71B5FAC5-63E9-42C3-9617-210D8658D435</title>
    <desc>Created with sketchtool.</desc>
    <defs>
        <rect id="path-1" x="13.7142857" y="12.3513514" width="6.85714286" height="6.81081081" rx="3.40540541"></rect>
        <mask id="mask-2" maskContentUnits="userSpaceOnUse" maskUnits="objectBoundingBox" x="0" y="0" width="6.85714286" height="6.81081081" fill="white">
            <use xlink:href="#path-1"></use>
        </mask>
        <rect id="path-3" x="20.5714286" y="21.4324324" width="6.85714286" height="6.81081081" rx="3.40540541"></rect>
        <mask id="mask-4" maskContentUnits="userSpaceOnUse" maskUnits="objectBoundingBox" x="0" y="0" width="6.85714286" height="6.81081081" fill="white">
            <use xlink:href="#path-3"></use>
        </mask>
        <rect id="path-5" x="7.77634954" y="3.49496666" width="3.42857143" height="7.94594595"></rect>
        <mask id="mask-6" maskContentUnits="userSpaceOnUse" maskUnits="objectBoundingBox" x="0" y="0" width="3.42857143" height="7.94594595" fill="white">
            <use xlink:href="#path-5"></use>
        </mask>
        <rect id="path-7" x="36.1968474" y="19.9363645" width="3.42857143" height="4.54054054"></rect>
        <mask id="mask-8" maskContentUnits="userSpaceOnUse" maskUnits="objectBoundingBox" x="0" y="0" width="3.42857143" height="4.54054054" fill="white">
            <use xlink:href="#path-7"></use>
        </mask>
        <rect id="path-9" x="43.4285714" y="13.4864865" width="4.57142857" height="4.54054054" rx="2.27027027"></rect>
        <mask id="mask-10" maskContentUnits="userSpaceOnUse" maskUnits="objectBoundingBox" x="0" y="0" width="4.57142857" height="4.54054054" fill="white">
            <use xlink:href="#path-9"></use>
        </mask>
        <rect id="path-11" x="5.71428571" y="18.027027" width="4.57142857" height="4.54054054" rx="2.27027027"></rect>
        <mask id="mask-12" maskContentUnits="userSpaceOnUse" maskUnits="objectBoundingBox" x="0" y="0" width="4.57142857" height="4.54054054" fill="white">
            <use xlink:href="#path-11"></use>
        </mask>
    </defs>
    <g id="JsConf" stroke="none" stroke-width="1" fill="none" fill-rule="evenodd">
        <g id="Landing-Speaker-small" transform="translate(-632.000000, -4965.000000)">
            <g id="Workshop-time" transform="translate(249.000000, 3578.000000)">
                <g id="Lunch" transform="translate(1.000000, 1352.000000)">
                    <g id="Icon-lunch" transform="translate(382.000000, 33.000000)">
                        <polygon id="Path-47" fill="#1D3E72" points="11.4285714 43 35.4285714 43 46.8571429 24.8378378 0 24.8378378"></polygon>
                        <path d="M36.1204372,10.9462679 C35.8600897,10.5876039 35.4508664,10.2451306 34.8915358,9.94258318 L33.2713181,9.06619171 C31.1227083,7.90398779 27.7889367,8.15234217 25.8338365,9.62561579 L27.2220041,8.57955651 C25.267487,10.0523908 24.8736705,12.8285783 26.3436926,14.7793635 L25.2804275,13.368363 C26.74411,15.3107353 29.7504461,16.0920466 31.9811073,15.0946799 L34.750026,13.8566491 C35.1726384,13.6676919 35.5174739,13.4512253 35.7840507,13.2165381 L48.9081748,13.2165381 L48.9081748,10.9462679 L36.1204372,10.9462679 Z" id="Combined-Shape" fill="#1D3E72" transform="translate(37.094301, 11.931655) rotate(-46.000000) translate(-37.094301, -11.931655) "></path>
                        <use id="Rectangle-44" stroke="#1D3E72" mask="url(#mask-2)" stroke-width="2" xlink:href="#path-1"></use>
                        <use id="Rectangle-44-Copy-3" stroke="#1D3E72" mask="url(#mask-4)" stroke-width="2" xlink:href="#path-3"></use>
                        <use id="Rectangle-48" stroke="#1D3E72" mask="url(#mask-6)" stroke-width="2" transform="translate(9.490635, 7.467940) rotate(-37.000000) translate(-9.490635, -7.467940) " xlink:href="#path-5"></use>
                        <use id="Rectangle-48-Copy" stroke="#1D3E72" mask="url(#mask-8)" stroke-width="2" transform="translate(37.911133, 22.206635) rotate(-131.000000) translate(-37.911133, -22.206635) " xlink:href="#path-7"></use>
                        <use id="Rectangle-44-Copy" stroke="#1D3E72" mask="url(#mask-10)" stroke-width="2" xlink:href="#path-9"></use>
                        <use id="Rectangle-44-Copy-2" stroke="#1D3E72" mask="url(#mask-12)" stroke-width="2" xlink:href="#path-11"></use>
                    </g>
                </g>
            </g>
        </g>
    </g>
</svg>
